<mxfile host="drawio-plugin" modified="2024-01-12T09:52:20.141Z" agent="5.0 (Windows NT 10.0; Win64; x64) AppleWebKit/537.36 (KHTML, like Gecko) Chrome/111.0.0.0 Safari/537.36" etag="i7tHhdazPHdl7pfxPjpK" version="20.5.3" type="embed"><diagram name="Page-1" id="2YBvvXClWsGukQMizWep"><mxGraphModel dx="888" dy="758" grid="1" gridSize="10" guides="1" tooltips="1" connect="1" arrows="1" fold="1" page="1" pageScale="1" pageWidth="850" pageHeight="1100" math="0" shadow="0"><root><mxCell id="0"/><mxCell id="1" parent="0"/><mxCell id="aM9ryv3xv72pqoxQDRHE-5" value=":GitHub" style="shape=umlLifeline;perimeter=lifelinePerimeter;whiteSpace=wrap;html=1;container=0;dropTarget=0;collapsible=0;recursiveResize=0;outlineConnect=0;portConstraint=eastwest;newEdgeStyle={&quot;edgeStyle&quot;:&quot;elbowEdgeStyle&quot;,&quot;elbow&quot;:&quot;vertical&quot;,&quot;curved&quot;:0,&quot;rounded&quot;:0};" parent="1" vertex="1"><mxGeometry x="360" y="40" width="100" height="400" as="geometry"/></mxCell><mxCell id="qGcuKTKg4TYZmEAxyRqr-5" value="" style="html=1;points=[];perimeter=orthogonalPerimeter;outlineConnect=0;targetShapes=umlLifeline;portConstraint=eastwest;newEdgeStyle={&quot;edgeStyle&quot;:&quot;elbowEdgeStyle&quot;,&quot;elbow&quot;:&quot;vertical&quot;,&quot;curved&quot;:0,&quot;rounded&quot;:0};" parent="aM9ryv3xv72pqoxQDRHE-5" vertex="1"><mxGeometry x="45" y="40" width="10" height="360" as="geometry"/></mxCell><mxCell id="aM9ryv3xv72pqoxQDRHE-1" value=":Development Environment" style="shape=umlLifeline;perimeter=lifelinePerimeter;whiteSpace=wrap;html=1;container=0;dropTarget=0;collapsible=0;recursiveResize=0;outlineConnect=0;portConstraint=eastwest;newEdgeStyle={&quot;edgeStyle&quot;:&quot;elbowEdgeStyle&quot;,&quot;elbow&quot;:&quot;vertical&quot;,&quot;curved&quot;:0,&quot;rounded&quot;:0};" parent="1" vertex="1"><mxGeometry x="200" y="40" width="100" height="210" as="geometry"/></mxCell><mxCell id="aM9ryv3xv72pqoxQDRHE-2" value="" style="html=1;points=[];perimeter=orthogonalPerimeter;outlineConnect=0;targetShapes=umlLifeline;portConstraint=eastwest;newEdgeStyle={&quot;edgeStyle&quot;:&quot;elbowEdgeStyle&quot;,&quot;elbow&quot;:&quot;vertical&quot;,&quot;curved&quot;:0,&quot;rounded&quot;:0};" parent="aM9ryv3xv72pqoxQDRHE-1" vertex="1"><mxGeometry x="45" y="70" width="10" height="140" as="geometry"/></mxCell><mxCell id="ZfkN1Lk-7HepPn44YQTx-6" value="" style="edgeStyle=none;rounded=0;html=1;jettySize=auto;orthogonalLoop=1;strokeColor=#404040;strokeWidth=1;fontColor=#000000;jumpStyle=none;endArrow=none;endFill=0;startArrow=none;dashed=1;" parent="1" source="Zq5V_OtLqt5f0FweGom1-1" edge="1"><mxGeometry width="100" relative="1" as="geometry"><mxPoint x="74" y="90" as="sourcePoint"/><mxPoint x="74" y="400" as="targetPoint"/></mxGeometry></mxCell><mxCell id="ZfkN1Lk-7HepPn44YQTx-5" value="Developer" style="shape=umlActor;verticalLabelPosition=bottom;verticalAlign=top;html=1;outlineConnect=0;" parent="1" vertex="1"><mxGeometry x="59" y="6" width="30" height="60" as="geometry"/></mxCell><mxCell id="ZfkN1Lk-7HepPn44YQTx-7" value=":Install Wizard" style="shape=umlLifeline;perimeter=lifelinePerimeter;whiteSpace=wrap;html=1;container=0;dropTarget=0;collapsible=0;recursiveResize=0;outlineConnect=0;portConstraint=eastwest;newEdgeStyle={&quot;edgeStyle&quot;:&quot;elbowEdgeStyle&quot;,&quot;elbow&quot;:&quot;vertical&quot;,&quot;curved&quot;:0,&quot;rounded&quot;:0};" parent="1" vertex="1"><mxGeometry x="697" y="40" width="100" height="400" as="geometry"/></mxCell><mxCell id="ZfkN1Lk-7HepPn44YQTx-8" value="" style="html=1;points=[];perimeter=orthogonalPerimeter;outlineConnect=0;targetShapes=umlLifeline;portConstraint=eastwest;newEdgeStyle={&quot;edgeStyle&quot;:&quot;elbowEdgeStyle&quot;,&quot;elbow&quot;:&quot;vertical&quot;,&quot;curved&quot;:0,&quot;rounded&quot;:0};" parent="ZfkN1Lk-7HepPn44YQTx-7" vertex="1"><mxGeometry x="45" y="190" width="10" height="210" as="geometry"/></mxCell><mxCell id="ZfkN1Lk-7HepPn44YQTx-11" value=":GitHub Actions" style="shape=umlLifeline;perimeter=lifelinePerimeter;whiteSpace=wrap;html=1;container=0;dropTarget=0;collapsible=0;recursiveResize=0;outlineConnect=0;portConstraint=eastwest;newEdgeStyle={&quot;edgeStyle&quot;:&quot;elbowEdgeStyle&quot;,&quot;elbow&quot;:&quot;vertical&quot;,&quot;curved&quot;:0,&quot;rounded&quot;:0};" parent="1" vertex="1"><mxGeometry x="528" y="41" width="100" height="400" as="geometry"/></mxCell><mxCell id="ZfkN1Lk-7HepPn44YQTx-12" value="" style="html=1;points=[];perimeter=orthogonalPerimeter;outlineConnect=0;targetShapes=umlLifeline;portConstraint=eastwest;newEdgeStyle={&quot;edgeStyle&quot;:&quot;elbowEdgeStyle&quot;,&quot;elbow&quot;:&quot;vertical&quot;,&quot;curved&quot;:0,&quot;rounded&quot;:0};" parent="ZfkN1Lk-7HepPn44YQTx-11" vertex="1"><mxGeometry x="45" y="40" width="10" height="360" as="geometry"/></mxCell><mxCell id="Zq5V_OtLqt5f0FweGom1-2" value="" style="edgeStyle=none;rounded=0;html=1;jettySize=auto;orthogonalLoop=1;strokeColor=#404040;strokeWidth=1;fontColor=#000000;jumpStyle=none;endArrow=none;endFill=0;startArrow=none;dashed=1;" parent="1" target="Zq5V_OtLqt5f0FweGom1-1" edge="1"><mxGeometry width="100" relative="1" as="geometry"><mxPoint x="74" y="90" as="sourcePoint"/><mxPoint x="74" y="400" as="targetPoint"/></mxGeometry></mxCell><mxCell id="Zq5V_OtLqt5f0FweGom1-1" value="" style="html=1;points=[];perimeter=orthogonalPerimeter;outlineConnect=0;targetShapes=umlLifeline;portConstraint=eastwest;newEdgeStyle={&quot;edgeStyle&quot;:&quot;elbowEdgeStyle&quot;,&quot;elbow&quot;:&quot;vertical&quot;,&quot;curved&quot;:0,&quot;rounded&quot;:0};" parent="1" vertex="1"><mxGeometry x="69" y="90" width="10" height="350" as="geometry"/></mxCell><mxCell id="0EXwaQ7q8TDjXse8bnkP-1" style="edgeStyle=elbowEdgeStyle;rounded=0;orthogonalLoop=1;jettySize=auto;html=1;elbow=horizontal;curved=0;exitX=1.1;exitY=0.029;exitDx=0;exitDy=0;exitPerimeter=0;entryX=0.8;entryY=0.127;entryDx=0;entryDy=0;entryPerimeter=0;" parent="1" source="Zq5V_OtLqt5f0FweGom1-1" target="Zq5V_OtLqt5f0FweGom1-1" edge="1"><mxGeometry relative="1" as="geometry"><Array as="points"><mxPoint x="90" y="230"/></Array></mxGeometry></mxCell><mxCell id="0EXwaQ7q8TDjXse8bnkP-5" value="planning" style="edgeLabel;html=1;align=center;verticalAlign=middle;resizable=0;points=[];" parent="0EXwaQ7q8TDjXse8bnkP-1" vertex="1" connectable="0"><mxGeometry x="-0.2112" relative="1" as="geometry"><mxPoint x="22" y="6" as="offset"/></mxGeometry></mxCell><mxCell id="0EXwaQ7q8TDjXse8bnkP-2" value="code" style="html=1;verticalAlign=bottom;endArrow=block;edgeStyle=elbowEdgeStyle;elbow=horizontal;curved=0;rounded=0;" parent="1" edge="1"><mxGeometry relative="1" as="geometry"><mxPoint x="79" y="159" as="sourcePoint"/><Array as="points"><mxPoint x="164" y="159"/></Array><mxPoint x="245" y="158.99999999999994" as="targetPoint"/></mxGeometry></mxCell><mxCell id="2" value="commit and push" style="html=1;verticalAlign=bottom;endArrow=block;edgeStyle=elbowEdgeStyle;elbow=horizontal;curved=0;rounded=0;" edge="1" parent="1" source="Zq5V_OtLqt5f0FweGom1-1" target="qGcuKTKg4TYZmEAxyRqr-5"><mxGeometry x="-0.319" relative="1" as="geometry"><mxPoint x="79" y="190" as="sourcePoint"/><Array as="points"><mxPoint x="150" y="210"/><mxPoint x="310" y="210"/><mxPoint x="164" y="190"/></Array><mxPoint x="245" y="190" as="targetPoint"/><mxPoint as="offset"/></mxGeometry></mxCell><mxCell id="3" value="build and test" style="html=1;verticalAlign=bottom;endArrow=block;edgeStyle=elbowEdgeStyle;elbow=horizontal;curved=0;rounded=0;" edge="1" parent="1" target="ZfkN1Lk-7HepPn44YQTx-12"><mxGeometry x="-0.319" relative="1" as="geometry"><mxPoint x="415" y="220" as="sourcePoint"/><Array as="points"><mxPoint x="486" y="220"/><mxPoint x="646" y="220"/><mxPoint x="500" y="200"/></Array><mxPoint x="570" y="220" as="targetPoint"/><mxPoint as="offset"/></mxGeometry></mxCell><mxCell id="4" value="Release" style="html=1;verticalAlign=bottom;endArrow=block;edgeStyle=elbowEdgeStyle;elbow=horizontal;curved=0;rounded=0;" edge="1" parent="1" source="Zq5V_OtLqt5f0FweGom1-1" target="ZfkN1Lk-7HepPn44YQTx-7"><mxGeometry x="0.1116" relative="1" as="geometry"><mxPoint x="79" y="264.5" as="sourcePoint"/><Array as="points"><mxPoint x="270" y="290"/><mxPoint x="330" y="230"/><mxPoint x="280" y="280"/><mxPoint x="110" y="265"/><mxPoint x="164" y="264.5"/></Array><mxPoint x="400" y="280" as="targetPoint"/><mxPoint as="offset"/></mxGeometry></mxCell><mxCell id="5" value="maintain" style="html=1;verticalAlign=bottom;endArrow=block;edgeStyle=elbowEdgeStyle;elbow=horizontal;curved=0;rounded=0;" edge="1" parent="1"><mxGeometry x="-0.319" relative="1" as="geometry"><mxPoint x="79" y="340" as="sourcePoint"/><Array as="points"><mxPoint x="150" y="340"/><mxPoint x="310" y="340"/><mxPoint x="164" y="320"/></Array><mxPoint x="405" y="340" as="targetPoint"/><mxPoint as="offset"/></mxGeometry></mxCell></root></mxGraphModel></diagram></mxfile>